<svg version="1.1" viewBox="0 0 303.29 119.14" xmlns="http://www.w3.org/2000/svg"><defs><clipPath id="cse-b"><path transform="translate(-286.01,-546.93)" d="M 0,841.89 H 595.276 V 0 H 0 Z"/></clipPath><clipPath id="cse-a"><path transform="translate(-241.34,-587.67)" d="M 0,841.89 H 595.276 V 0 H 0 Z"/></clipPath><clipPath id="cse-bl"><path transform="translate(-266.28,-546.93)" d="M 0,841.89 H 595.276 V 0 H 0 Z"/></clipPath><clipPath id="cse-bk"><path transform="translate(-241.34,-574.01)" d="M 0,841.89 H 595.276 V 0 H 0 Z"/></clipPath><clipPath id="cse-bj"><path transform="translate(-208.65,-555.65)" d="M 0,841.89 H 595.276 V 0 H 0 Z"/></clipPath><clipPath id="cse-bi"><path transform="translate(-209.95,-556.87)" d="M 0,841.89 H 595.276 V 0 H 0 Z"/></clipPath><clipPath id="cse-bh"><path transform="translate(-211.33,-561.33)" d="M 0,841.89 H 595.276 V 0 H 0 Z"/></clipPath><clipPath id="cse-bg"><path transform="translate(-210.18,-566.46)" d="M 0,841.89 H 595.276 V 0 H 0 Z"/></clipPath><clipPath id="cse-bf"><path transform="translate(-211.59,-570.01)" d="M 0,841.89 H 595.276 V 0 H 0 Z"/></clipPath><clipPath id="cse-be"><path transform="translate(-213.34,-572.15)" d="M 0,841.89 H 595.276 V 0 H 0 Z"/></clipPath><clipPath id="cse-bd"><path transform="translate(-218.48,-573.52)" d="M 0,841.89 H 595.276 V 0 H 0 Z"/></clipPath><clipPath id="cse-bc"><path transform="translate(-220.24,-577.05)" d="M 0,841.89 H 595.276 V 0 H 0 Z"/></clipPath><clipPath id="cse-bb"><path transform="translate(-224.19,-578.82)" d="M 0,841.89 H 595.276 V 0 H 0 Z"/></clipPath><clipPath id="cse-az"><path transform="translate(-231.02,-579.15)" d="M 0,841.89 H 595.276 V 0 H 0 Z"/></clipPath><clipPath id="cse-ay"><path transform="translate(-230.6,-583.03)" d="M 0,841.89 H 595.276 V 0 H 0 Z"/></clipPath><clipPath id="cse-ax"><path transform="translate(-234.02,-581.21)" d="M 0,841.89 H 595.276 V 0 H 0 Z"/></clipPath><clipPath id="cse-aw"><path transform="translate(-237.24,-582.66)" d="M 0,841.89 H 595.276 V 0 H 0 Z"/></clipPath><clipPath id="cse-av"><path transform="translate(-243.21,-580.69)" d="M 0,841.89 H 595.276 V 0 H 0 Z"/></clipPath><clipPath id="cse-au"><path transform="translate(-244.99,-581.8)" d="M 0,841.89 H 595.276 V 0 H 0 Z"/></clipPath><clipPath id="cse-at"><path transform="translate(-249.28,-578.87)" d="M 0,841.89 H 595.276 V 0 H 0 Z"/></clipPath><clipPath id="cse-as"><path transform="translate(-254.84,-579.28)" d="M 0,841.89 H 595.276 V 0 H 0 Z"/></clipPath><clipPath id="cse-ar"><path transform="translate(-258.31,-578.63)" d="M 0,841.89 H 595.276 V 0 H 0 Z"/></clipPath><clipPath id="cse-aq"><path transform="translate(-261.66,-575.32)" d="M 0,841.89 H 595.276 V 0 H 0 Z"/></clipPath><clipPath id="cse-ap"><path transform="translate(-265.1,-576.12)" d="M 0,841.89 H 595.276 V 0 H 0 Z"/></clipPath><clipPath id="cse-ao"><path transform="translate(-266.1,-572.99)" d="M 0,841.89 H 595.276 V 0 H 0 Z"/></clipPath><clipPath id="cse-an"><path transform="translate(-268.25,-569.37)" d="M 0,841.89 H 595.276 V 0 H 0 Z"/></clipPath><clipPath id="cse-am"><path transform="translate(-270.33,-566.62)" d="M 0,841.89 H 595.276 V 0 H 0 Z"/></clipPath><clipPath id="cse-ak"><path transform="translate(-273.65,-564.48)" d="M 0,841.89 H 595.276 V 0 H 0 Z"/></clipPath><clipPath id="cse-aj"><path transform="translate(-275.72,-562.27)" d="M 0,841.89 H 595.276 V 0 H 0 Z"/></clipPath><clipPath id="cse-ai"><path transform="translate(-275.2,-559.02)" d="M 0,841.89 H 595.276 V 0 H 0 Z"/></clipPath><clipPath id="cse-ah"><path transform="translate(-275.47,-554.31)" d="M 0,841.89 H 595.276 V 0 H 0 Z"/></clipPath><clipPath id="cse-ag"><path transform="translate(-208.05,-541.78)" d="M 0,841.89 H 595.276 V 0 H 0 Z"/></clipPath><clipPath id="cse-af"><path transform="translate(-210.4,-539.12)" d="M 0,841.89 H 595.276 V 0 H 0 Z"/></clipPath><clipPath id="cse-ae"><path transform="translate(-209.91,-535.14)" d="M 0,841.89 H 595.276 V 0 H 0 Z"/></clipPath><clipPath id="cse-ad"><path transform="translate(-211.28,-532.01)" d="M 0,841.89 H 595.276 V 0 H 0 Z"/></clipPath><clipPath id="cse-ac"><path transform="translate(-213.63,-529.58)" d="M 0,841.89 H 595.276 V 0 H 0 Z"/></clipPath><clipPath id="cse-ab"><path transform="translate(-218.02,-526.42)" d="M 0,841.89 H 595.276 V 0 H 0 Z"/></clipPath><clipPath id="cse-aa"><path transform="translate(-219.29,-522.79)" d="M 0,841.89 H 595.276 V 0 H 0 Z"/></clipPath><clipPath id="cse-z"><path transform="translate(-222.55,-522.21)" d="M 0,841.89 H 595.276 V 0 H 0 Z"/></clipPath><clipPath id="cse-bm"><path transform="translate(-222.51,-516.37)" d="M 0,841.89 H 595.276 V 0 H 0 Z"/></clipPath><clipPath id="cse-al"><path transform="translate(-226.58,-516.79)" d="M 0,841.89 H 595.276 V 0 H 0 Z"/></clipPath><clipPath id="cse-x"><path transform="translate(-230.29,-517)" d="M 0,841.89 H 595.276 V 0 H 0 Z"/></clipPath><clipPath id="cse-w"><path transform="translate(-232.53,-515.64)" d="M 0,841.89 H 595.276 V 0 H 0 Z"/></clipPath><clipPath id="cse-v"><path transform="translate(-236.09,-516.32)" d="M 0,841.89 H 595.276 V 0 H 0 Z"/></clipPath><clipPath id="cse-u"><path transform="translate(-237.45,-516.09)" d="M 0,841.89 H 595.276 V 0 H 0 Z"/></clipPath><clipPath id="cse-t"><path transform="translate(-241.71,-511.92)" d="M 0,841.89 H 595.276 V 0 H 0 Z"/></clipPath><clipPath id="cse-s"><path transform="translate(-247.13,-511.79)" d="M 0,841.89 H 595.276 V 0 H 0 Z"/></clipPath><clipPath id="cse-r"><path transform="translate(-250.44,-514.49)" d="M 0,841.89 H 595.276 V 0 H 0 Z"/></clipPath><clipPath id="cse-q"><path transform="translate(-255.11,-515.5)" d="M 0,841.89 H 595.276 V 0 H 0 Z"/></clipPath><clipPath id="cse-p"><path transform="translate(-258.92,-516.55)" d="M 0,841.89 H 595.276 V 0 H 0 Z"/></clipPath><clipPath id="cse-o"><path transform="translate(-260.7,-520.6)" d="M 0,841.89 H 595.276 V 0 H 0 Z"/></clipPath><clipPath id="cse-n"><path transform="translate(-264.75,-522.74)" d="M 0,841.89 H 595.276 V 0 H 0 Z"/></clipPath><clipPath id="cse-m"><path transform="translate(-264.31,-526.03)" d="M 0,841.89 H 595.276 V 0 H 0 Z"/></clipPath><clipPath id="cse-l"><path transform="translate(-270.02,-526.71)" d="M 0,841.89 H 595.276 V 0 H 0 Z"/></clipPath><clipPath id="cse-k"><path transform="translate(-269.31,-531.6)" d="M 0,841.89 H 595.276 V 0 H 0 Z"/></clipPath><clipPath id="cse-j"><path transform="translate(-272.39,-534.24)" d="M 0,841.89 H 595.276 V 0 H 0 Z"/></clipPath><clipPath id="cse-i"><path transform="translate(-272.2,-536.74)" d="M 0,841.89 H 595.276 V 0 H 0 Z"/></clipPath><clipPath id="cse-h"><path transform="translate(-277.72,-540.3)" d="M 0,841.89 H 595.276 V 0 H 0 Z"/></clipPath><clipPath id="cse-g"><path d="M 0,841.89 H 595.276 V 0 H 0 Z"/></clipPath><clipPath id="cse-f"><path transform="translate(-243.6,-536.23)" d="M 0,841.89 H 595.276 V 0 H 0 Z"/></clipPath><clipPath id="cse-e"><path d="M 0,841.89 H 595.276 V 0 H 0 Z"/></clipPath><clipPath id="cse-d"><path transform="translate(-243.45,-556.14)" d="M 0,841.89 H 595.276 V 0 H 0 Z"/></clipPath><clipPath id="cse-c"><path transform="translate(-260.33,-554.23)" d="M 0,841.89 H 595.276 V 0 H 0 Z"/></clipPath><clipPath id="cse-ba"><path transform="translate(-233.72,-536.78)" d="M 0,841.89 H 595.276 V 0 H 0 Z"/></clipPath><clipPath id="cse-y"><path transform="translate(-222.4,-542.42)" d="M 0,841.89 H 595.276 V 0 H 0 Z"/></clipPath></defs><g transform="translate(-.0029785 .001844)"><g transform="translate(-262.21,-333.71)"><path transform="matrix(1.3333,0,0,-1.3333,381.35,393.28)" d="m0 0c0-24.674-20.003-44.676-44.675-44.676-24.679 0-44.68 20.002-44.68 44.676 0 24.672 20.001 44.68 44.68 44.68 24.672 0 44.675-20.008 44.675-44.68" clip-path="url(#cse-b)" fill="#fff"/><path transform="matrix(1.3333,0,0,-1.3333,321.78,338.96)" d="m0 0c-22.471 0-40.747-18.278-40.747-40.742 0-22.474 18.276-40.751 40.747-40.751 22.466 0 40.746 18.277 40.746 40.751 0 22.464-18.28 40.742-40.746 40.742m0-82.938c-5.693 0-11.221 1.121-16.419 3.32-5.027 2.124-9.538 5.17-13.419 9.047-3.868 3.866-6.912 8.38-9.036 13.411-2.2 5.202-3.316 10.72-3.316 16.418 0 5.693 1.116 11.221 3.316 16.425 2.124 5.021 5.168 9.532 9.036 13.41 3.881 3.868 8.392 6.91 13.419 9.034 5.198 2.201 10.726 3.314 16.419 3.314 5.697 0 11.216-1.113 16.421-3.314 5.026-2.124 9.533-5.166 13.408-9.034 3.877-3.878 6.914-8.389 9.043-13.41 2.2-5.204 3.318-10.732 3.318-16.425 0-5.698-1.118-11.216-3.318-16.418-2.129-5.031-5.166-9.545-9.043-13.411-3.875-3.877-8.382-6.923-13.408-9.047-5.205-2.199-10.724-3.32-16.421-3.32" clip-path="url(#cse-a)" fill="#75bf44"/><path transform="matrix(1.3333,0,0,-1.3333,355.04,393.28)" d="m0 0c0-13.783-11.164-24.952-24.941-24.952-13.779 0-24.946 11.169-24.946 24.952 0 13.779 11.167 24.941 24.946 24.941 13.777 0 24.941-11.162 24.941-24.941" clip-path="url(#cse-bl)" fill="#6cbe46"/><g fill="#093643"><path transform="matrix(1.3333,0,0,-1.3333,321.78,357.17)" d="m0 0c-14.933 0-27.087-12.148-27.087-27.081 0-14.939 12.154-27.094 27.087-27.094 14.932 0 27.087 12.155 27.087 27.094 0 14.933-12.155 27.081-27.087 27.081m0-54.888c-7.43 0-14.414 2.891-19.664 8.139-5.248 5.256-8.145 12.24-8.145 19.668s2.897 14.408 8.145 19.664c5.25 5.248 12.234 8.14 19.664 8.14 7.423 0 14.408-2.892 19.662-8.14 5.252-5.256 8.142-12.236 8.142-19.664s-2.89-14.412-8.142-19.668c-5.254-5.248-12.239-8.139-19.662-8.139" clip-path="url(#cse-bk)"/><path transform="matrix(1.3333,0,0,-1.3333,278.2,381.65)" d="m0 0 0.803-0.177c0.488-0.099 0.835-0.302 1.042-0.603 0.202-0.29 0.256-0.674 0.157-1.138-0.098-0.459-0.312-0.783-0.624-0.964-0.31-0.178-0.709-0.214-1.197-0.106l-3.13 0.69c-0.485 0.104-0.83 0.305-1.038 0.601-0.206 0.295-0.267 0.666-0.163 1.132 0.106 0.467 0.312 0.787 0.624 0.97 0.312 0.179 0.71 0.219 1.197 0.109l0.592-0.123-0.202-0.893-0.644 0.136c-0.215 0.045-0.375 0.042-0.489-0.028-0.108-0.07-0.178-0.18-0.208-0.332-0.036-0.147-0.022-0.276 0.048-0.383 0.079-0.108 0.213-0.187 0.434-0.234l3.244-0.715c0.223-0.048 0.377-0.037 0.488 0.029 0.102 0.07 0.172 0.183 0.201 0.332 0.039 0.15 0.021 0.279-0.042 0.387-0.071 0.107-0.211 0.177-0.424 0.229l-0.868 0.194z" clip-path="url(#cse-bj)"/><path transform="matrix(1.3333,0,0,-1.3333,279.93,380.03)" d="m0 0c0.211-0.076 0.373-0.079 0.489-0.02 0.122 0.054 0.194 0.158 0.244 0.303 0.058 0.14 0.043 0.274-0.018 0.386-0.055 0.118-0.186 0.211-0.4 0.277l-3.153 1.052c-0.215 0.07-0.376 0.079-0.482 0.024-0.12-0.061-0.206-0.158-0.249-0.301-0.045-0.149-0.045-0.276 0.014-0.393 0.056-0.114 0.187-0.208 0.4-0.278zm-3.404 0.109c-0.471 0.16-0.787 0.4-0.968 0.733-0.174 0.316-0.185 0.701-0.027 1.153 0.143 0.45 0.38 0.756 0.719 0.907 0.337 0.154 0.733 0.154 1.208-7e-3l3.031-1.007c0.479-0.158 0.8-0.397 0.979-0.727 0.172-0.319 0.179-0.71 0.025-1.158-0.143-0.449-0.387-0.749-0.721-0.905-0.335-0.161-0.731-0.156-1.206 4e-3z" clip-path="url(#cse-bi)"/><path transform="matrix(1.3333,0,0,-1.3333,281.77,374.08)" d="m0 0-3.66 2.49 0.582 1.215 5.555-2.665-0.401-0.834-3.98 1.913 3.691-2.504-0.392-0.827-4.236 1.235 3.924-1.885-0.371-0.757-5.546 2.66 0.575 1.212z" clip-path="url(#cse-bh)"/><path transform="matrix(1.3333,0,0,-1.3333,280.24,367.24)" d="m0 0 1.748-1.122 0.252 0.38c0.081 0.127 0.106 0.251 0.081 0.366-0.018 0.114-0.133 0.233-0.315 0.347l-0.777 0.506c-0.186 0.116-0.342 0.158-0.453 0.14-0.108-0.027-0.213-0.104-0.289-0.232zm-0.498 0.864c0.263 0.407 0.568 0.64 0.912 0.699 0.346 0.059 0.733-0.039 1.153-0.312l0.665-0.43c0.419-0.265 0.674-0.575 0.77-0.914 0.083-0.334 0-0.71-0.265-1.121l-0.247-0.387 1.946-1.245-0.523-0.816-5.184 3.325z" clip-path="url(#cse-bg)"/><path transform="matrix(1.3333,0,0,-1.3333,282.12,362.51)" d="m0 0 3.709-2.956c0.183-0.141 0.322-0.204 0.448-0.188 0.125 0.018 0.233 0.088 0.328 0.202 0.097 0.122 0.142 0.241 0.131 0.372-7e-3 0.121-0.103 0.258-0.28 0.394l-3.716 2.963 0.568 0.713 3.668-2.92c0.384-0.315 0.617-0.643 0.665-1 0.059-0.357-0.059-0.724-0.355-1.092-0.292-0.374-0.62-0.568-0.982-0.597-0.361-0.023-0.739 0.122-1.124 0.434l-3.666 2.922z" clip-path="url(#cse-bf)"/><path transform="matrix(1.3333,0,0,-1.3333,284.46,359.66)" d="m0 0 2.087 2.14 0.623-0.614-0.706-0.725 3.777-3.68-0.67-0.692-3.781 3.68-0.704-0.727z" clip-path="url(#cse-be)"/><path transform="matrix(1.3333,0,0,-1.3333,291.31,357.83)" d="m0 0 1.022 0.855 0.559-0.67-1.009-0.862 1.16-1.372 1.272 1.081 0.577-0.672-2.011-1.706-3.981 4.701 2.015 1.707 0.568-0.674-1.278-1.076z" clip-path="url(#cse-bd)"/><path transform="matrix(1.3333,0,0,-1.3333,293.65,353.12)" d="m0 0 1.059-1.561 0.319 0.209c0.151 0.101 0.235 0.226 0.273 0.359 0.028 0.136-0.025 0.301-0.171 0.504l-0.331 0.507c-0.127 0.183-0.254 0.29-0.373 0.333-0.129 0.031-0.258 4e-3 -0.391-0.091zm3.848-3.761c-0.035 0.027-0.069 0.049-0.095 0.076-0.035 0.021-0.057 0.055-0.105 0.086-0.036 0.039-0.076 0.095-0.124 0.157-0.05 0.065-0.113 0.156-0.176 0.249l-0.545 0.807c-0.166 0.233-0.319 0.371-0.475 0.411-0.141 0.041-0.306 0-0.489-0.122l-0.28-0.194 1.413-2.068-0.789-0.547-3.477 5.083 1.204 0.823c0.407 0.287 0.776 0.393 1.101 0.328 0.322-0.061 0.615-0.29 0.88-0.684l0.272-0.4c0.354-0.529 0.416-0.988 0.178-1.393 0.265 0.063 0.495 0.02 0.695-0.115 0.198-0.134 0.388-0.335 0.576-0.597l0.539-0.787c0.085-0.127 0.171-0.24 0.237-0.324 0.073-0.09 0.169-0.161 0.271-0.235z" clip-path="url(#cse-bc)"/><path transform="matrix(1.3333,0,0,-1.3333,298.92,350.76)" d="m0 0c-0.217 0.446-0.276 0.837-0.181 1.192 0.102 0.348 0.359 0.618 0.789 0.826 0.421 0.205 0.805 0.248 1.131 0.113 0.328-0.138 0.611-0.43 0.826-0.88l0.084-0.174-0.819-0.396-0.12 0.223c-0.091 0.206-0.201 0.328-0.312 0.371-0.118 0.043-0.249 0.028-0.387-0.033-0.131-0.071-0.22-0.161-0.263-0.278-0.029-0.127 0-0.283 0.093-0.478 0.096-0.194 0.224-0.341 0.382-0.445 0.15-0.106 0.324-0.188 0.512-0.253 0.192-0.069 0.389-0.132 0.59-0.191 0.219-0.056 0.423-0.131 0.615-0.226 0.21-0.09 0.396-0.212 0.575-0.362 0.181-0.156 0.334-0.368 0.461-0.631 0.222-0.441 0.278-0.841 0.179-1.181-0.098-0.353-0.367-0.633-0.798-0.839-0.419-0.212-0.799-0.246-1.138-0.119-0.335 0.138-0.613 0.425-0.833 0.877l-0.163 0.337 0.819 0.405 0.186-0.402c0.097-0.197 0.215-0.311 0.337-0.351 0.119-0.041 0.249-0.023 0.382 0.043 0.145 0.061 0.231 0.154 0.271 0.276 0.044 0.113 0.012 0.278-0.083 0.473-0.093 0.192-0.215 0.341-0.366 0.439-0.159 0.115-0.333 0.198-0.519 0.26-0.196 0.072-0.395 0.131-0.599 0.191-0.206 0.052-0.414 0.134-0.617 0.222-0.197 0.095-0.392 0.217-0.566 0.366-0.181 0.155-0.341 0.367-0.468 0.625" clip-path="url(#cse-bb)"/><path transform="matrix(1.3333,0,0,-1.3333,308.03,350.32)" d="m0 0 0.287-0.767c0.166-0.47 0.192-0.868 0.05-1.207-0.127-0.324-0.427-0.58-0.87-0.743-0.447-0.169-0.838-0.16-1.155 5e-3 -0.32 0.165-0.56 0.486-0.732 0.955l-1.109 2.997c-0.171 0.47-0.185 0.875-0.051 1.198 0.133 0.34 0.425 0.588 0.873 0.758 0.443 0.16 0.827 0.16 1.14-9e-3 0.33-0.165 0.57-0.48 0.746-0.95l0.206-0.559-0.858-0.323-0.223 0.629c-0.086 0.201-0.179 0.332-0.297 0.389-0.12 0.052-0.246 0.052-0.387 0-0.138-0.052-0.242-0.136-0.294-0.247-0.06-0.118-0.042-0.289 0.037-0.495l1.142-3.122c0.084-0.201 0.172-0.332 0.292-0.388 0.122-0.048 0.248-0.048 0.387 8e-3 0.14 0.048 0.241 0.13 0.296 0.249 0.059 0.107 0.04 0.274-0.03 0.478l-0.305 0.834z" clip-path="url(#cse-az)"/><path transform="matrix(1.3333,0,0,-1.3333,307.47,345.14)" d="m0 0 0.929 0.26 1.677-5.926-0.933-0.258z" clip-path="url(#cse-ay)"/><path transform="matrix(1.3333,0,0,-1.3333,312.03,347.57)" d="m0 0 1.305 0.269 0.172-0.86-1.303-0.262 0.357-1.769 1.643 0.324 0.176-0.855-2.59-0.527-1.226 6.034 2.584 0.53 0.174-0.865-1.634-0.33z" clip-path="url(#cse-ax)"/><path transform="matrix(1.3333,0,0,-1.3333,316.32,345.64)" d="m0 0 0.417-4.442-0.867-0.081-0.577 6.125 1.203 0.117 1.346-3.576-0.348 3.667 0.851 0.083 0.592-6.129-1-0.088z" clip-path="url(#cse-aw)"/><path transform="matrix(1.3333,0,0,-1.3333,324.29,348.27)" d="m0 0-0.013-0.814c-0.01-0.498-0.132-0.884-0.381-1.142-0.244-0.263-0.604-0.389-1.081-0.385-0.475 5e-3 -0.832 0.145-1.079 0.418-0.237 0.267-0.345 0.65-0.341 1.152l0.049 3.196c5e-3 0.504 0.134 0.88 0.378 1.148 0.249 0.263 0.614 0.388 1.082 0.385 0.475-9e-3 0.836-0.151 1.072-0.418 0.239-0.274 0.361-0.652 0.346-1.156l-7e-3 -0.593-0.912 9e-3 0.01 0.659c4e-3 0.219-0.039 0.38-0.132 0.47-0.09 0.093-0.208 0.145-0.36 0.145-0.158 0-0.275-0.046-0.364-0.131-0.097-0.089-0.146-0.245-0.146-0.471l-0.052-3.318c0-0.226 0.042-0.375 0.135-0.47 0.082-0.089 0.206-0.131 0.358-0.141 0.151 0 0.282 0.041 0.368 0.131 0.091 0.089 0.143 0.24 0.145 0.462l9e-3 0.882z" clip-path="url(#cse-av)"/><path transform="matrix(1.3333,0,0,-1.3333,326.65,346.79)" d="m0 0 1.323-0.144-0.102-0.878-1.321 0.151-0.198-1.795 1.655-0.19-0.093-0.873-2.621 0.296 0.696 6.114 2.608-0.29-0.092-0.875-1.658 0.189z" clip-path="url(#cse-au)"/><path transform="matrix(1.3333,0,0,-1.3333,332.37,350.69)" d="m0 0c-0.061-0.217-0.061-0.378 0.011-0.489 0.057-0.106 0.172-0.183 0.31-0.224 0.15-0.04 0.267-0.025 0.376 0.026 0.106 0.062 0.19 0.178 0.249 0.357l0.37 1.388-0.357 0.089c-0.215 0.061-0.393 0.043-0.516-0.045-0.124-0.086-0.226-0.27-0.305-0.545zm-0.8 0.771c0.083 0.31 0.203 0.554 0.35 0.742 0.156 0.188 0.371 0.296 0.633 0.344-0.387 0.292-0.5 0.757-0.33 1.389l0.029 0.115c0.129 0.479 0.34 0.814 0.636 1.004 0.294 0.184 0.679 0.222 1.145 0.1l1.076-0.281-0.222-0.857-1.056 0.283c-0.145 0.043-0.276 0.029-0.386-0.037-0.104-0.065-0.188-0.208-0.243-0.42l-0.092-0.364c-0.07-0.236-0.061-0.414 0.016-0.532 0.068-0.113 0.203-0.199 0.375-0.246l0.403-0.107 0.18 0.663 0.935-0.244-0.179-0.667 0.247-0.068-0.224-0.846-0.245 0.061-0.517-1.952c-0.041-0.145-0.068-0.274-0.084-0.393-0.023-0.112-0.023-0.231-5e-3 -0.356l-0.954 0.252c-7e-3 0.067-7e-3 0.131-7e-3 0.192 0.016 0.065 0.025 0.167 0.05 0.298-0.26-0.315-0.593-0.42-1.011-0.305-0.344 0.088-0.577 0.278-0.688 0.549-0.111 0.281-0.108 0.643 0.011 1.081z" clip-path="url(#cse-at)"/><path transform="matrix(1.3333,0,0,-1.3333,339.79,350.14)" d="m0 0 1.214-0.531-0.339-0.801-1.219 0.522-0.719-1.653 1.547-0.663-0.348-0.809-2.429 1.04 2.422 5.659 2.429-1.038-0.35-0.81-1.531 0.663z" clip-path="url(#cse-as)"/><path transform="matrix(1.3333,0,0,-1.3333,344.41,351.01)" d="m0 0-2.18-3.89-0.763 0.425 3.016 5.369 1.051-0.592-0.927-3.701 1.796 3.21 0.753-0.419-3.001-5.367-0.869 0.486z" clip-path="url(#cse-ar)"/><path transform="matrix(1.3333,0,0,-1.3333,348.89,355.43)" d="m0 0 1.1-0.78-1.134-1.59c-0.282-0.414-0.611-0.647-0.957-0.724-0.352-0.08-0.725 0.025-1.108 0.303-0.389 0.271-0.604 0.591-0.651 0.943-0.041 0.364 0.081 0.747 0.369 1.153l1.865 2.607c0.287 0.4 0.609 0.64 0.964 0.716 0.357 0.079 0.719-0.024 1.104-0.301 0.391-0.273 0.606-0.592 0.649-0.95 0.04-0.357-0.079-0.737-0.378-1.142l-0.337-0.495-0.746 0.536 0.378 0.536c0.131 0.179 0.191 0.339 0.169 0.464-0.027 0.122-0.097 0.233-0.219 0.321-0.123 0.09-0.249 0.122-0.38 0.102-0.12-0.027-0.253-0.12-0.38-0.308l-1.929-2.698c-0.138-0.184-0.186-0.339-0.17-0.462 0.027-0.126 0.099-0.23 0.228-0.323 0.12-0.084 0.247-0.122 0.378-0.104 0.115 0.02 0.246 0.124 0.371 0.301l0.665 0.924-0.358 0.257z" clip-path="url(#cse-aq)"/><path transform="matrix(1.3333,0,0,-1.3333,353.47,354.36)" d="m0 0 0.747-0.62-3.954-4.716-0.739 0.616z" clip-path="url(#cse-ap)"/><path transform="matrix(1.3333,0,0,-1.3333,354.8,358.54)" d="m0 0-3.13-3.173-0.62 0.613 4.325 4.379 0.864-0.855-1.889-3.318 2.588 2.623 0.617-0.606-4.322-4.381-0.708 0.701z" clip-path="url(#cse-ao)"/><path transform="matrix(1.3333,0,0,-1.3333,357.67,363.36)" d="m0 0 0.844-1.033-0.676-0.552-0.851 1.033-1.398-1.147 1.068-1.296-0.677-0.56-1.675 2.044 4.769 3.902 1.663-2.033-0.678-0.561-1.061 1.287z" clip-path="url(#cse-an)"/><path transform="matrix(1.3333,0,0,-1.3333,360.44,367.02)" d="m0 0 0.733-1.101-0.733-0.487-0.733 1.108-1.506-1.004 0.93-1.388-0.725-0.493-1.469 2.196 5.116 3.421 1.465-2.191-0.726-0.495-0.931 1.393z" clip-path="url(#cse-am)"/><path transform="matrix(1.3333,0,0,-1.3333,364.86,369.87)" d="m0 0-1.674-0.88 0.17-0.337c0.09-0.16 0.199-0.256 0.328-0.305 0.135-0.043 0.303-0.018 0.52 0.099l0.536 0.281c0.201 0.104 0.322 0.217 0.374 0.33 0.051 0.118 0.045 0.251-0.046 0.405zm-4.175-3.397c0.027 0.032 0.056 0.056 0.084 0.084 0.027 0.033 0.056 0.063 0.103 0.09 0.041 0.032 0.096 0.07 0.166 0.111 0.074 0.043 0.16 0.095 0.267 0.147l0.859 0.455c0.262 0.131 0.407 0.275 0.468 0.409 0.059 0.147 0.03 0.316-0.066 0.513l-0.164 0.297-2.21-1.17-0.45 0.853 5.439 2.879 0.674-1.298c0.237-0.441 0.308-0.814 0.209-1.124-0.1-0.314-0.365-0.579-0.779-0.792l-0.436-0.233c-0.554-0.299-1.027-0.305-1.393-0.024 0.025-0.261-0.039-0.487-0.2-0.68-0.16-0.183-0.373-0.348-0.655-0.501l-0.847-0.444c-0.137-0.07-0.251-0.136-0.338-0.206-0.102-0.056-0.191-0.137-0.277-0.235z" clip-path="url(#cse-ak)"/><path transform="matrix(1.3333,0,0,-1.3333,367.63,372.83)" d="m0 0 0.385-0.889-5.66-2.44-0.373 0.893z" clip-path="url(#cse-aj)"/><path transform="matrix(1.3333,0,0,-1.3333,366.93,377.15)" d="m0 0-4.22-1.423-0.286 0.824 5.836 1.961 0.391-1.15-3.18-2.116 3.488 1.174 0.285-0.812-5.844-1.968-0.315 0.941z" clip-path="url(#cse-ai)"/><path transform="matrix(1.3333,0,0,-1.3333,367.29,383.44)" d="m0 0 0.287-1.318-1.909-0.419c-0.49-0.108-0.882-0.068-1.199 0.115-0.316 0.177-0.522 0.496-0.619 0.966-0.1 0.459-0.055 0.842 0.163 1.138 0.207 0.292 0.556 0.495 1.044 0.604l3.12 0.676c0.49 0.108 0.893 0.07 1.205-0.107 0.308-0.185 0.52-0.508 0.616-0.974 0.11-0.466 0.047-0.841-0.152-1.133-0.215-0.301-0.563-0.494-1.048-0.607l-0.592-0.126-0.186 0.893 0.641 0.14c0.215 0.046 0.359 0.129 0.434 0.236 0.07 0.106 0.084 0.237 0.056 0.379-0.038 0.154-0.108 0.263-0.214 0.336-0.102 0.065-0.27 0.079-0.491 0.031l-3.244-0.708c-0.215-0.041-0.366-0.122-0.432-0.237-0.061-0.102-0.077-0.229-0.049-0.374 0.036-0.149 0.106-0.264 0.208-0.336 0.099-0.071 0.273-0.079 0.484-0.032l1.104 0.235-0.093 0.437z" clip-path="url(#cse-ah)"/><path transform="matrix(1.3333,0,0,-1.3333,277.4,400.15)" d="m0 0 0.185-1.296-1.857-0.276c-0.47-0.07-0.85-0.018-1.148 0.179-0.283 0.192-0.464 0.517-0.536 0.972-0.068 0.452 0.016 0.814 0.228 1.081 0.222 0.272 0.572 0.442 1.041 0.512l3.048 0.466c0.478 0.065 0.86 9e-3 1.154-0.188 0.283-0.19 0.464-0.518 0.529-0.964 0.07-0.455 0-0.812-0.219-1.081-0.217-0.276-0.57-0.447-1.047-0.524l-0.568-0.082-0.127 0.875 0.626 0.088c0.209 0.037 0.358 0.107 0.423 0.204 0.075 0.097 0.098 0.219 0.086 0.366-0.024 0.145-0.086 0.253-0.185 0.328-0.1 0.072-0.26 0.098-0.472 0.061l-3.161-0.481c-0.223-0.027-0.359-0.097-0.424-0.191-0.079-0.101-0.098-0.23-0.079-0.372 0.024-0.141 0.081-0.249 0.178-0.329 0.099-0.074 0.251-0.094 0.463-0.06l1.084 0.164-0.061 0.417z" clip-path="url(#cse-ag)"/><path transform="matrix(1.3333,0,0,-1.3333,280.53,403.69)" d="m0 0-1.76-0.475 0.088-0.351c0.048-0.167 0.121-0.292 0.243-0.359 0.113-0.072 0.284-0.08 0.511-0.025l0.561 0.151c0.208 0.059 0.352 0.141 0.42 0.236 0.077 0.097 0.098 0.226 0.046 0.384zm-4.65-2.294c0.036 0.021 0.058 0.043 0.084 0.061 0.042 0.012 0.078 0.037 0.122 0.061 0.049 0.018 0.106 0.043 0.187 0.066 0.075 0.023 0.168 0.046 0.281 0.079l0.904 0.242c0.274 0.069 0.442 0.167 0.521 0.283 0.088 0.122 0.101 0.292 0.05 0.495l-0.078 0.315-2.341-0.626-0.241 0.908 5.735 1.527 0.367-1.364c0.122-0.468 0.108-0.841-0.061-1.103-0.154-0.274-0.462-0.464-0.907-0.582l-0.452-0.119c-0.589-0.155-1.018-0.066-1.315 0.278-0.033-0.254-0.138-0.448-0.328-0.588-0.189-0.139-0.438-0.252-0.732-0.329l-0.887-0.244c-0.145-0.033-0.263-0.065-0.373-0.104-0.098-0.047-0.199-0.099-0.297-0.179z" clip-path="url(#cse-af)"/><path transform="matrix(1.3333,0,0,-1.3333,279.88,409)" d="m0 0 0.463-1.194-0.787-0.312-0.456 1.205-1.627-0.628 0.577-1.507-0.792-0.303-0.914 2.377 5.542 2.133 0.916-2.38-0.798-0.296-0.572 1.505z" clip-path="url(#cse-ae)"/><path transform="matrix(1.3333,0,0,-1.3333,281.7,413.17)" d="m0 0 0.583-1.138-0.757-0.391-0.581 1.144-1.55-0.786 0.731-1.444-0.763-0.38-1.148 2.271 5.295 2.694 1.146-2.271-0.757-0.387-0.718 1.441z" clip-path="url(#cse-ad)"/><path transform="matrix(1.3333,0,0,-1.3333,284.84,416.42)" d="m0 0-3.598-2.366-0.457 0.701 4.966 3.259 0.638-0.985-2.444-2.744 2.972 1.95 0.454-0.695-4.962-3.259-0.523 0.801z" clip-path="url(#cse-ac)"/><path transform="matrix(1.3333,0,0,-1.3333,290.7,420.63)" d="m0 0-3.393-3.079c-0.156-0.144-0.24-0.278-0.246-0.397-5e-3 -0.125 0.043-0.234 0.144-0.347 0.102-0.106 0.208-0.167 0.331-0.176 0.117-0.011 0.264 0.061 0.423 0.21l3.392 3.079 0.586-0.663-3.347-3.035c-0.349-0.321-0.706-0.487-1.047-0.487-0.36 7e-3 -0.677 0.174-0.993 0.514-0.306 0.337-0.439 0.688-0.407 1.027 0.035 0.344 0.23 0.68 0.587 1.002l3.341 3.042z" clip-path="url(#cse-ab)"/><path transform="matrix(1.3333,0,0,-1.3333,292.39,425.47)" d="m0 0-2.832-3.23-0.629 0.556 3.918 4.459 0.877-0.771-1.626-3.305 2.344 2.671 0.624-0.55-3.915-4.455-0.717 0.628z" clip-path="url(#cse-aa)"/><path transform="matrix(1.3333,0,0,-1.3333,296.73,426.24)" d="m0 0 0.746-0.556-3.526-4.775-0.753 0.554z" clip-path="url(#cse-z)"/><path transform="matrix(1.3333,0,0,-1.3333,296.68,434.03)" d="m0 0 3.155 3.746 0.726-0.453-3.894-4.564-1.183 0.737 2.336 5.521 0.801-0.49z" clip-path="url(#cse-bm)"/><path transform="matrix(1.3333,0,0,-1.3333,302.11,433.47)" d="m0 0 1.163-0.556-0.373-0.767-1.152 0.559-0.748-1.57 1.452-0.697-0.371-0.758-2.289 1.1 2.563 5.355 2.295-1.106-0.368-0.76-1.455 0.695z" clip-path="url(#cse-al)"/><path transform="matrix(1.3333,0,0,-1.3333,307.05,433.18)" d="m0 0-0.606-1.726 0.344-0.118c0.169-0.056 0.31-0.065 0.434-0.013 0.126 0.052 0.228 0.194 0.299 0.419l0.198 0.549c0.077 0.202 0.084 0.362 0.052 0.48-0.043 0.113-0.147 0.198-0.294 0.255zm-0.732-5.141v0.117c0 0.032 0.011 0.075 0.015 0.131 0.013 0.051 0.027 0.114 0.054 0.188 0.025 0.075 0.054 0.165 0.093 0.278l0.308 0.885c0.09 0.256 0.119 0.464 0.063 0.595-0.048 0.14-0.179 0.246-0.38 0.319l-0.308 0.104-0.809-2.28-0.876 0.316 1.979 5.589 1.322-0.465c0.459-0.161 0.753-0.385 0.884-0.668 0.127-0.287 0.118-0.649-0.03-1.077l-0.162-0.443c-0.195-0.576-0.527-0.888-0.976-0.936 0.193-0.161 0.301-0.371 0.308-0.597 0.011-0.24-0.032-0.502-0.136-0.798l-0.31-0.865c-0.054-0.137-0.088-0.258-0.11-0.366-0.03-0.102-0.037-0.22-0.037-0.343z" clip-path="url(#cse-x)"/><path transform="matrix(1.3333,0,0,-1.3333,310.04,435)" d="m0 0c0.104 0.471 0.305 0.805 0.586 1.002 0.278 0.199 0.651 0.244 1.095 0.138 0.448-0.109 0.75-0.307 0.904-0.613 0.165-0.301 0.192-0.687 0.089-1.156l-0.043-0.178-0.86 0.198 0.057 0.24c0.041 0.209 0.036 0.369-0.021 0.469-0.058 0.104-0.152 0.174-0.305 0.212-0.14 0.032-0.256 0.011-0.36-0.057-0.099-0.06-0.179-0.203-0.222-0.407-0.056-0.205-0.047-0.384 3e-3 -0.561 0.057-0.169 0.129-0.339 0.231-0.502 0.099-0.165 0.214-0.336 0.332-0.499 0.115-0.179 0.228-0.356 0.321-0.552 0.097-0.186 0.158-0.392 0.204-0.618 0.032-0.222 0.032-0.472-0.043-0.748-0.107-0.471-0.305-0.805-0.597-1.004-0.288-0.19-0.65-0.238-1.097-0.129-0.45 0.103-0.753 0.303-0.919 0.617-0.18 0.3-0.208 0.685-0.092 1.149l0.088 0.359 0.859-0.205-0.102-0.41c-0.052-0.208-0.042-0.37 0.025-0.466 0.066-0.104 0.172-0.174 0.306-0.208 0.151-0.031 0.278-0.018 0.384 0.045 0.1 0.059 0.174 0.19 0.227 0.406 0.043 0.194 0.04 0.386-0.018 0.556-0.048 0.169-0.118 0.337-0.226 0.507-0.089 0.165-0.206 0.328-0.328 0.502-0.114 0.174-0.222 0.353-0.32 0.54-0.092 0.188-0.158 0.4-0.197 0.627-0.043 0.226-0.033 0.472 0.039 0.746" clip-path="url(#cse-w)"/><path transform="matrix(1.3333,0,0,-1.3333,314.79,434.09)" d="m0 0 0.923-0.14-0.907-5.865-0.916 0.142z" clip-path="url(#cse-v)"/><path transform="matrix(1.3333,0,0,-1.3333,316.6,434.4)" d="m0 0 2.875-0.22-0.071-0.846-0.972 0.078-0.391-5.072-0.932 0.064 0.396 5.08-0.977 0.075z" clip-path="url(#cse-u)"/><path transform="matrix(1.3333,0,0,-1.3333,322.29,439.96)" d="m0 0-1.267 3.936 0.977 0.024 0.779-2.689 0.64 2.721 0.891 0.018-1.077-3.99 0.046-1.967-0.932-0.028z" clip-path="url(#cse-t)"/><path transform="matrix(1.3333,0,0,-1.3333,329.5,440.14)" d="m0 0c0.036-0.217 0.1-0.364 0.204-0.428 0.101-0.07 0.219-0.09 0.375-0.067 0.144 0.025 0.244 0.092 0.317 0.187 0.074 0.098 0.085 0.26 0.049 0.466l-0.556 3.165c-0.041 0.21-0.117 0.346-0.219 0.416-0.095 0.077-0.22 0.099-0.365 0.077-0.142-0.03-0.253-0.093-0.321-0.199-0.07-0.098-0.088-0.258-0.052-0.469zm-1.473 2.933c-0.085 0.464-0.029 0.853 0.164 1.15 0.196 0.293 0.522 0.484 0.965 0.565 0.455 0.079 0.828 0.014 1.109-0.192 0.282-0.211 0.465-0.555 0.553-1.031l0.539-3.036c0.084-0.475 0.025-0.864-0.168-1.156-0.192-0.299-0.513-0.481-0.965-0.561-0.455-0.083-0.817-0.022-1.108 0.19-0.284 0.217-0.464 0.554-0.548 1.03z" clip-path="url(#cse-s)"/><path transform="matrix(1.3333,0,0,-1.3333,333.92,436.53)" d="m0 0 1.158 0.341 0.237-0.823-1.16-0.332 0.679-2.353-0.902-0.255-1.631 5.704 2.368 0.681 0.239-0.814-1.479-0.423z" clip-path="url(#cse-r)"/><path transform="matrix(1.3333,0,0,-1.3333,340.14,435.19)" d="m0 0 0.748-1.654 0.494 0.222c0.14 0.059 0.237 0.149 0.273 0.267 0.039 0.108 0.014 0.263-0.081 0.466l-0.21 0.47c-0.116 0.249-0.234 0.405-0.36 0.46-0.131 0.047-0.292 0.033-0.482-0.055zm-1.002 2.201 0.645-1.43 0.33 0.156c0.163 0.075 0.271 0.174 0.323 0.287 0.052 0.132 0.03 0.299-0.067 0.512l-0.136 0.305c-0.088 0.194-0.195 0.321-0.301 0.375-0.115 0.059-0.236 0.048-0.385-0.017zm0.081 0.966c0.442 0.205 0.806 0.25 1.107 0.14 0.285-0.122 0.524-0.392 0.716-0.81l0.088-0.188c0.118-0.278 0.184-0.527 0.181-0.748-0.011-0.215-0.081-0.414-0.237-0.593 0.274 0.022 0.5-0.047 0.688-0.204 0.187-0.158 0.343-0.377 0.473-0.664l0.199-0.442c0.196-0.415 0.232-0.782 0.112-1.096-0.122-0.315-0.389-0.579-0.816-0.769l-1.335-0.604-2.46 5.399z" clip-path="url(#cse-q)"/><path transform="matrix(1.3333,0,0,-1.3333,345.22,433.79)" d="m0 0 0.765 0.457-1.923 2.347zm2.787-0.529-0.803-0.475-0.69 0.837-0.984-0.591 0.419-1.008-0.742-0.435-2.235 5.578 1.169 0.705z" clip-path="url(#cse-p)"/><path transform="matrix(1.3333,0,0,-1.3333,347.6,428.39)" d="m0 0 2.628-3.406-0.671-0.509-3.61 4.704 0.925 0.715 2.92-2.235-2.163 2.814 0.661 0.505 3.612-4.703-0.758-0.585z" clip-path="url(#cse-o)"/><path transform="matrix(1.3333,0,0,-1.3333,353,425.53)" d="m0 0 0.945 0.907 1.31-1.348c0.328-0.353 0.498-0.697 0.515-1.045 5e-3 -0.348-0.151-0.676-0.481-1-0.328-0.316-0.669-0.466-1.016-0.445-0.346 0.022-0.688 0.208-1.024 0.552l-2.142 2.228c-0.332 0.343-0.507 0.687-0.507 1.035-0.016 0.348 0.143 0.686 0.471 1.002 0.328 0.317 0.664 0.471 1.022 0.446 0.344-0.029 0.676-0.208 1.016-0.556l0.4-0.414-0.64-0.616-0.435 0.466c-0.153 0.15-0.284 0.226-0.411 0.231-0.118 0-0.24-0.045-0.344-0.145-0.104-0.11-0.158-0.217-0.158-0.339-5e-3 -0.127 0.07-0.267 0.214-0.423l2.229-2.303c0.151-0.156 0.285-0.241 0.407-0.241 0.124 0 0.237 0.052 0.343 0.16 0.107 0.093 0.157 0.212 0.157 0.335 0.011 0.118-0.06 0.26-0.211 0.412l-0.767 0.793-0.296-0.298z" clip-path="url(#cse-n)"/><path transform="matrix(1.3333,0,0,-1.3333,352.41,421.15)" d="m0 0 0.604 0.706 3.877-3.289 0.995 1.167 0.653-0.545-1.605-1.879z" clip-path="url(#cse-m)"/><path transform="matrix(1.3333,0,0,-1.3333,360.03,420.24)" d="m0 0 0.514 0.742-2.737 1.319zm2.755 0.69-0.534-0.778-0.979 0.477-0.643-0.938 0.798-0.75-0.483-0.705-4.361 4.137 0.78 1.129z" clip-path="url(#cse-l)"/><path transform="matrix(1.3333,0,0,-1.3333,359.08,413.71)" d="m0 0 3.75-1.988 0.237 0.47c0.07 0.123 0.089 0.249 0.055 0.364-0.034 0.113-0.149 0.218-0.344 0.322l-2.719 1.45c-0.198 0.097-0.344 0.126-0.457 0.097-0.12-0.043-0.208-0.118-0.276-0.254zm-1.19-0.421 0.686 1.292c0.23 0.418 0.499 0.671 0.827 0.755 0.326 0.086 0.706 0.016 1.124-0.206l2.649-1.407c0.428-0.23 0.697-0.497 0.808-0.821 0.112-0.316 0.058-0.687-0.161-1.096l-0.692-1.306z" clip-path="url(#cse-k)"/><path transform="matrix(1.3333,0,0,-1.3333,363.19,410.21)" d="m0 0 0.47 1.185 0.787-0.316-0.477-1.188 1.62-0.644 0.594 1.495 0.788-0.315-0.939-2.359-5.512 2.199 0.939 2.361 0.785-0.315-0.591-1.49z" clip-path="url(#cse-j)"/><path transform="matrix(1.3333,0,0,-1.3333,362.93,406.86)" d="m0 0c-0.464 0.131-0.785 0.342-0.975 0.638-0.181 0.282-0.219 0.653-0.09 1.092 0.127 0.441 0.343 0.742 0.646 0.88 0.317 0.158 0.706 0.167 1.165 0.036l0.184-0.056-0.244-0.848-0.236 0.067c-0.203 0.061-0.364 0.061-0.459 0-0.118-0.047-0.194-0.145-0.228-0.287-0.037-0.144-0.032-0.262 0.031-0.366 0.063-0.106 0.197-0.185 0.403-0.244 0.194-0.059 0.377-0.059 0.55-0.014 0.183 0.045 0.35 0.113 0.518 0.204 0.171 0.092 0.348 0.197 0.518 0.307 0.18 0.113 0.37 0.211 0.554 0.296 0.207 0.089 0.409 0.147 0.635 0.179 0.229 0.029 0.477 3e-3 0.747-0.075 0.465-0.131 0.784-0.345 0.968-0.64 0.185-0.3 0.215-0.664 0.088-1.104-0.122-0.443-0.342-0.737-0.652-0.893-0.312-0.156-0.699-0.17-1.164-0.041l-0.346 0.103 0.233 0.85 0.413-0.118c0.204-0.056 0.358-0.056 0.469 5e-3 0.108 0.056 0.178 0.16 0.219 0.309 0.039 0.132 0.029 0.261-0.029 0.369-0.061 0.106-0.19 0.192-0.398 0.249-0.191 0.052-0.376 0.066-0.561 0.014-0.168-0.043-0.335-0.114-0.505-0.209-0.17-0.094-0.35-0.19-0.518-0.305-0.183-0.113-0.36-0.211-0.558-0.296-0.199-0.084-0.405-0.141-0.632-0.174-0.23-0.027-0.475-0.011-0.746 0.072" clip-path="url(#cse-i)"/><path transform="matrix(1.3333,0,0,-1.3333,370.29,402.11)" d="m0 0-0.145-0.929-5.858 0.977 0.147 0.923 2.515-0.419 0.174 1.043-2.515 0.418 0.156 0.936 5.858-0.972-0.158-0.939-2.504 0.421-0.176-1.043z" clip-path="url(#cse-h)"/></g><g fill="#fff"><path transform="matrix(1.3333,0,0,-1.3333,0,1122.5)" d="m249.05 543.3h-16.961v9.735h16.961zm2.199 11.938h-21.352v-14.134h21.352z" clip-path="url(#cse-g)"/><path transform="matrix(1.3333,0,0,-1.3333,324.8,407.54)" d="m0 0h-16.688v-0.94h27.491v0.94z" clip-path="url(#cse-f)"/><path transform="matrix(1.3333,0,0,-1.3333,0,1122.5)" d="m250.62 537.34h-1.099v0.624h1.099zm-1.409 0h-1.101v0.624h1.101zm-1.732 0h-1.097v0.624h1.097zm-1.572 0h-1.09v0.624h1.09zm-1.722 0h-1.102v0.624h1.102zm-1.569 1.568h1.104v-0.626h-1.104zm-0.157-1.568h-4.247v0.624h4.247zm-4.867 0h-1.106v0.624h1.106zm-1.57 0h-1.099v0.624h1.088v-0.624zm-1.571 0h-1.104v0.624h1.104zm-1.727 0h-1.102v0.624h1.102zm-1.419 0h-1.099v0.624h1.099zm-0.154 1.568h1.097v-0.626h-1.097zm0.624 0.94h1.097v-0.62h-1.097zm2.044-1.565h-1.095v0.626h1.095zm-0.311 1.565h1.097v-0.62h-1.097zm1.883-1.565h-1.101v0.626h1.101zm-0.31 1.565h1.093v-0.62h-1.093zm2.034-1.565h-1.104v0.626h1.104zm-0.308 1.565h1.093v-0.62h-1.093zm2.038-1.565h-1.104v0.626h1.104zm-0.472 1.565h1.103v-0.62h-1.103zm2.044-1.565h-1.102v0.626h1.102zm-0.321 1.565h1.11v-0.62h-1.11zm1.889-1.565h-1.097v0.626h1.097zm-0.31 1.565h1.095v-0.62h-1.095zm1.561 0h1.108v-0.62h-1.108zm2.044-1.565h-1.095v0.626h1.095zm-0.31 1.565h1.097v-0.62h-1.097zm2.042-1.565h-1.104v0.626h1.104zm-0.47 1.565h1.097v-0.62h-1.097zm2.038-1.565h-1.101v0.626h1.101zm1.411 0h-1.095v0.626h1.095zm-1.725 1.565h1.099v-0.62h-1.099zm3.083 0.634h-21.558l-2.936-3.925h27.432z" clip-path="url(#cse-e)"/><path transform="matrix(1.3333,0,0,-1.3333,324.6,381)" d="m0 0-0.93-2.97s3.798-0.366 6.951-1.355c3.158-0.986 6.487-2.851 6.487-2.851l0.946 3.033s-2.839 2.859-6.216 3.912c-3.359 1.05-7.238 0.231-7.238 0.231" clip-path="url(#cse-d)"/><path transform="matrix(1.3333,0,0,-1.3333,347.1,383.55)" d="m0 0c0.31 0.088 0.83 0.179 0.681-0.26-5e-3 -0.045-0.054-0.168-0.106-0.35zm0.548-1.854c-0.095-0.313-0.431-0.485-0.744-0.388-0.308 0.093-0.483 0.426-0.385 0.731 0.093 0.317 0.436 0.491 0.742 0.396 0.312-0.104 0.486-0.427 0.387-0.739m1.617-0.421-1.102 1.16 0.106 0.348s0.973 1.787-1.477 1.464c-0.128-0.03-0.201-0.068-0.25-0.118l-7.286 7.638-13.654-3.015 3.756-3.356 0.197 0.645s4.32 0.911 8.075-0.249c3.768-1.174 6.926-4.363 6.926-4.363l-0.347-1.127 2.821 0.543c-0.479-1.507-1.013-3.232-1.187-3.773l-0.799 0.254-0.579-1.869 1.3 0.405 0.951-1.108 0.581 1.866-0.873 0.274 1.28 4.084z" clip-path="url(#cse-c)"/><path transform="matrix(1.3333,0,0,-1.3333,311.63,406.81)" d="m0 0c-9e-3 -0.384-0.118-0.643-0.305-0.695h-0.011c-0.243-0.067-0.643 0.154-0.941 0.686-0.098 0.174-0.154 0.448-0.154 0.744 0.293-0.161 0.737-0.396 1.411-0.735m1.097-0.905c-0.188-0.716-0.719-1.495-1.602-1.524-1.517-0.048-2.053 2.791-2.13 3.892l-0.025 0.27-0.273-3e-3c-0.016 0-0.969 0.028-3.637 1.28 0.298 0.588 0.911 0.971 1.393 1.197 1.508-0.728 2.976-1.312 3.84-1.646-0.015-0.017-0.036-0.03-0.056-0.05-0.729-0.695-0.733-2.196-0.38-2.819 0.421-0.733 1.076-1.115 1.63-0.97 0.229 0.07 0.783 0.355 0.72 1.463v0.174l-0.15 0.075c-0.972 0.48-1.517 0.776-1.771 0.928 0.064 0.289 0.177 0.556 0.364 0.73 0.274 0.26 0.664 0.229 1.157-0.079 1.015-0.631 1.185-1.947 0.92-2.918m-7.919 1.88c-0.042 0.38-0.052 0.905 0.068 1.486 2.025-0.945 3.099-1.206 3.558-1.28 0.05-0.489 0.226-1.625 0.66-2.592-1.114 0.669-2.755 1.614-4.286 2.386m-1.325 2.832c-0.927 0.491-2.008 1.088-3.239 1.829 0.26 0.378 0.869 1.111 1.776 1.358 0.667-0.661 1.682-1.335 2.784-1.936-0.453-0.163-0.975-0.516-1.321-1.251m-0.376-2.025c-1.612 0.718-3.049 1.254-3.263 1.317-0.559 0.16-0.93 0.425-1.082 0.794-0.181 0.443-0.083 1.038 0.29 1.779 1.662-1.024 3.061-1.807 4.225-2.413-0.255-0.814-0.233-1.212-0.17-1.477m8.112 1.109c-0.717 0.264-6.856 2.512-8.888 4.663l-0.117 0.113-0.165-0.033c-1.23-0.254-1.991-1.188-2.309-1.654-0.208 0.122-0.434 0.249-0.636 0.382l-0.262 0.159-0.154-0.258c-0.588-1.031-0.747-1.891-0.468-2.56 0.222-0.545 0.728-0.934 1.47-1.142 0.129-0.041 1.714-0.614 3.47-1.425-0.184-0.318-0.955-1.149-1.235-1.464-0.304-0.362-1.516-2.176-1.516-2.176l1.066 0.018 0.531-0.603s0.179 1.3 0.563 2.013c0.383 0.716 1.183 1.411 1.183 1.411s-0.31-0.837-0.495-1.622c-0.193-0.765 0.02-1.999 0.02-1.999l0.577 0.359 0.645-0.828s-0.208 1.346-0.161 2.265c0.034 0.748 0.391 1.529 0.529 1.805 2.273-1.168 4.711-2.66 5.2-2.964 0.306-0.214 0.652-0.33 1.072-0.318 0.15 6e-3 0.301 0.022 0.441 0.06 0.81 0.202 1.439 0.896 1.717 1.896 0.316 1.172 0.084 2.78-1.179 3.565-0.339 0.219-0.639 0.312-0.899 0.337" clip-path="url(#cse-ba)"/></g><path transform="matrix(1.3333,0,0,-1.3333,296.54,399.29)" d="m0 0c1.122-0.663 2.176-1.266 3.158-1.769 0.328 0.688 0.83 1.03 1.237 1.195-1.194 0.658-2.097 1.286-2.699 1.874-0.875-0.248-1.461-0.952-1.696-1.3m3.198-1.896-0.04 0.03c-1 0.511-2.092 1.127-3.248 1.823l-0.041 0.023 0.029 0.036c0.276 0.405 0.88 1.124 1.798 1.384h0.023l0.02-0.013c0.611-0.609 1.552-1.256 2.767-1.929l0.097-0.051-0.097-0.033c-0.396-0.141-0.944-0.475-1.294-1.226zm-4.429 1.862c-0.359-0.705-0.443-1.28-0.273-1.696 0.142-0.358 0.493-0.615 1.047-0.772 0.226-0.065 1.645-0.597 3.191-1.273-0.047 0.246-0.047 0.633 0.175 1.364-1.278 0.67-2.674 1.473-4.14 2.377m4.099-3.903-0.091 0.036c-1.563 0.703-3.03 1.243-3.261 1.311-0.576 0.163-0.95 0.441-1.106 0.824-0.188 0.452-0.084 1.067 0.305 1.811l0.016 0.048 0.038-0.028c1.493-0.926 2.916-1.736 4.217-2.417l0.036-0.014-7e-3 -0.031c-0.271-0.83-0.238-1.215-0.176-1.45zm7.082-1.048c0.018-0.267 0.065-0.497 0.151-0.64 0.292-0.523 0.681-0.726 0.889-0.674 0.168 0.056 0.269 0.276 0.287 0.629-0.543 0.271-0.993 0.504-1.327 0.685m0.974-1.414c-0.23 0-0.599 0.193-0.897 0.729-0.107 0.163-0.161 0.45-0.161 0.762l-9e-3 0.083 0.07-0.042c0.348-0.192 0.823-0.437 1.412-0.733l0.027-0.014v-0.029c-3e-3 -0.409-0.134-0.676-0.344-0.742h-5e-3c-0.027-3e-3 -0.061-0.014-0.093-0.014m-6.382 1.755c1.459-0.739 3.039-1.642 4.143-2.3-0.373 0.892-0.545 1.895-0.603 2.443-0.484 0.082-1.55 0.353-3.479 1.256-0.113-0.564-0.097-1.066-0.061-1.399m4.347-2.519-0.127 0.068c-1.112 0.663-2.761 1.617-4.283 2.384l-0.023 0.015v0.016c-0.037 0.349-0.061 0.892 0.065 1.511l0.012 0.046 0.054-0.019c2.004-0.941 3.078-1.198 3.542-1.268l0.036-9e-3 4e-3 -0.035c0.064-0.562 0.231-1.655 0.661-2.578zm-0.185 3.293 0.024-0.31c0.075-1.072 0.588-3.849 2.058-3.849h0.028c0.862 0.027 1.372 0.793 1.567 1.49 0.254 0.952 0.084 2.258-0.9 2.87-0.477 0.297-0.853 0.335-1.113 0.08-0.186-0.177-0.296-0.455-0.341-0.672 0.228-0.131 0.728-0.407 1.737-0.905l0.172-0.086 0.011-0.206c0.059-1.133-0.516-1.425-0.755-1.504-0.086-0.024-0.175-0.036-0.267-0.036-0.519 0-1.059 0.392-1.418 1.018-0.364 0.644-0.346 2.171 0.391 2.881-0.941 0.367-2.334 0.928-3.755 1.608-0.455-0.207-1.04-0.571-1.327-1.124 2.625-1.228 3.566-1.255 3.566-1.255zm2.082-4.25c-1.538 0-2.067 2.839-2.148 3.935l-0.018 0.232h-0.233s-0.962 8e-3 -3.662 1.28l-0.032 0.015 0.012 0.043c0.31 0.605 0.931 1.002 1.416 1.219l0.022 3e-3 0.013-3e-3c1.464-0.705 2.907-1.284 3.85-1.648l0.066-0.025-0.066-0.054c-0.013-0.019-0.027-0.025-0.038-0.037-0.72-0.687-0.731-2.158-0.378-2.768 0.337-0.604 0.851-0.975 1.335-0.975 0.09 0 0.16 0.011 0.233 0.03 0.232 0.07 0.755 0.341 0.701 1.415l-3e-3 0.15-0.133 0.056c-1.054 0.523-1.57 0.808-1.773 0.925l-0.035 0.02 0.012 0.034c0.052 0.233 0.168 0.548 0.384 0.751 0.284 0.274 0.704 0.249 1.22-0.074 1.015-0.631 1.199-1.98 0.934-2.966-0.199-0.73-0.742-1.529-1.651-1.558zm-7.233-0.389 0.564-0.724c-0.046 0.39-0.17 1.378-0.132 2.106 0.028 0.742 0.38 1.523 0.521 1.823l0.027 0.038 0.043-0.018c2.488-1.287 5.181-2.954 5.206-2.967 0.321-0.224 0.659-0.323 1.047-0.319 0.161 9e-3 0.301 0.027 0.43 0.061 0.794 0.197 1.414 0.898 1.686 1.866 0.305 1.151 0.083 2.746-1.156 3.52-0.308 0.189-0.604 0.301-0.88 0.33h-9e-3c-0.695 0.249-6.854 2.504-8.921 4.677l-0.088 0.093-0.142-0.029c-1.181-0.242-1.943-1.136-2.287-1.64l-0.023-0.03-0.036 0.016c-0.204 0.122-0.418 0.258-0.634 0.391l-0.225 0.127-0.12-0.212c-0.584-1.02-0.744-1.866-0.478-2.523 0.224-0.522 0.719-0.909 1.443-1.121 0.127-0.029 1.699-0.591 3.488-1.418l0.036-0.023-0.018-0.038c-0.145-0.243-0.61-0.761-0.952-1.147-0.115-0.131-0.217-0.249-0.294-0.333-0.267-0.31-1.233-1.757-1.463-2.097l1.002 0.014 0.481-0.536c0.045 0.31 0.229 1.319 0.556 1.922 0.379 0.713 1.19 1.416 1.192 1.419l0.136 0.119-0.067-0.171s-0.322-0.84-0.509-1.606c-0.15-0.654-0.012-1.649 0.031-1.909zm0.709-1.049-0.738 0.927-0.59-0.368-0.01 0.067c-0.011 0.046-0.212 1.24-0.026 2.016 0.131 0.565 0.341 1.155 0.438 1.443-0.238-0.234-0.757-0.752-1.038-1.269-0.38-0.701-0.559-1.979-0.559-1.989l-0.013-0.104-0.574 0.661-1.132-0.025 0.044 0.075c0.044 0.076 1.209 1.825 1.517 2.176 0.077 0.083 0.179 0.201 0.297 0.334 0.321 0.362 0.748 0.841 0.908 1.091-1.755 0.804-3.299 1.363-3.417 1.4-0.756 0.208-1.273 0.617-1.508 1.166-0.274 0.682-0.114 1.555 0.483 2.6l0.17 0.302 0.301-0.185c0.203-0.127 0.4-0.244 0.602-0.367 0.363 0.528 1.13 1.405 2.316 1.65l0.18 0.035 0.131-0.133c2.045-2.153 8.161-4.39 8.88-4.653 0.292-0.024 0.598-0.142 0.916-0.343 1.271-0.792 1.507-2.431 1.188-3.612-0.271-1.006-0.919-1.728-1.748-1.93-0.134-0.038-0.29-0.05-0.448-0.068h-0.057c-0.375 0-0.721 0.114-1.04 0.336-0.023 0.013-2.681 1.662-5.159 2.931-0.131-0.267-0.466-1.029-0.5-1.739-0.048-0.906 0.16-2.242 0.163-2.251z" clip-path="url(#cse-y)" fill="#75bf44"/></g><g transform="translate(125.76 37.991)" fill="#1a1a1a" fill-opacity=".8" stroke-width="1.333" style="paint-order:stroke fill markers;white-space:pre" aria-label="COMPUTER 
SCIENCE AND 
ENGINEERING"><path d="m12.688-7.5781h4.5469q-0.09375 2.5625-1.0312 4.3281-0.9375 1.75-2.6719 2.6562-1.7188 0.90625-4.1562 0.90625-1.8906 0-3.3594-0.625-1.4688-0.64062-2.5-1.875t-1.5625-3.0469q-0.51562-1.8281-0.51562-4.2031v-3.8594q0-2.375 0.54688-4.2031 0.5625-1.8281 1.5938-3.0625 1.0469-1.25 2.5156-1.875 1.4844-0.64062 3.3438-0.64062 2.4844 0 4.1562 0.9375 1.6719 0.92188 2.5781 2.7188 0.92188 1.7969 1.1094 4.375h-4.5625q-0.04687-1.625-0.375-2.5469-0.3125-0.9375-1-1.3125-0.6875-0.39062-1.9062-0.39062-0.90625 0-1.5625 0.32812-0.65625 0.3125-1.0781 1.0156t-0.625 1.8438q-0.1875 1.1406-0.1875 2.7812v3.8906q0 1.6094 0.17188 2.75 0.17188 1.125 0.54688 1.8438t1.0156 1.0469q0.65625 0.32812 1.6562 0.32812 1.1562 0 1.8594-0.34375 0.71875-0.34375 1.0625-1.2344t0.39062-2.5312zm23.375-5.5625v3.7969q0 2.4062-0.59375 4.2188-0.57812 1.7969-1.6562 3.0156-1.0625 1.2031-2.5781 1.8125-1.5 0.60938-3.3281 0.60938t-3.3438-0.60938q-1.5-0.60938-2.5938-1.8125-1.0781-1.2188-1.6719-3.0156-0.59375-1.8125-0.59375-4.2188v-3.7969q0-2.4688 0.57812-4.3125 0.57812-1.8594 1.6719-3.0938 1.0938-1.25 2.5938-1.875 1.5-0.64062 3.3281-0.64062t3.3281 0.64062q1.5 0.625 2.5938 1.875 1.0938 1.2344 1.6719 3.0938 0.59375 1.8438 0.59375 4.3125zm-4.5469 3.7969v-3.8281q0-1.625-0.23438-2.7656-0.23438-1.1562-0.70312-1.8906t-1.1406-1.0781-1.5625-0.34375-1.5781 0.34375q-0.67188 0.34375-1.1406 1.0781-0.45312 0.73438-0.6875 1.8906-0.21875 1.1406-0.21875 2.7656v3.8281q0 1.5625 0.23438 2.6719t0.70312 1.8125 1.1406 1.0469q0.6875 0.32812 1.5781 0.32812 0.875 0 1.5469-0.32812 0.6875-0.34375 1.1406-1.0469t0.6875-1.8125 0.23438-2.6719zm9.5-13.406h4.0156l4.6406 15.562 4.625-15.562h3.5469l-6.4688 22.75h-3.4219zm-1.625 0h3.8281l0.59375 15v7.75h-4.4219zm16.703 0h3.8438v22.75h-4.4062v-7.75zm15.312 14.734h-4.6562v-3.7969h4.6562q0.98438 0 1.5938-0.4375t0.89062-1.2031q0.28125-0.78125 0.28125-1.75 0-0.98438-0.28125-1.8438t-0.89062-1.375q-0.60938-0.53125-1.5938-0.53125h-3.1719v18.953h-4.5781v-22.75h7.75q2.2969 0 3.9375 0.96875 1.6562 0.96875 2.5469 2.6719 0.89062 1.6875 0.89062 3.875 0 2.2031-0.89062 3.8281-0.89062 1.6094-2.5469 2.5-1.6406 0.89062-3.9375 0.89062zm20.656-14.734h4.5625v15.625q0 2.625-0.96875 4.2812-0.95312 1.6406-2.6406 2.4062-1.6875 0.75-3.8594 0.75-2.1875 0-3.8906-0.75-1.7031-0.76562-2.6562-2.4062-0.9375-1.6562-0.9375-4.2812v-15.625h4.5625v15.625q0 1.4844 0.32812 2.2812 0.34375 0.79688 0.98438 1.0938 0.65625 0.28125 1.6094 0.28125 0.96875 0 1.5938-0.28125 0.64062-0.29688 0.96875-1.0938 0.34375-0.79688 0.34375-2.2812zm17.109 0v22.75h-4.5469v-22.75zm5.6562 0v3.7969h-15.75v-3.7969zm15.687 18.969v3.7812h-9.8906v-3.7812zm-8.4687-18.969v22.75h-4.5781v-22.75zm7.1406 9.2188v3.6719h-8.5625v-3.6719zm1.2969-9.2188v3.7969h-9.8594v-3.7969zm2.7031 0h7.2969q2.2812 0 3.8906 0.78125 1.6094 0.78125 2.4688 2.3125 0.85937 1.5312 0.85937 3.7812 0 1.8438-0.5 3.1562-0.5 1.2969-1.4219 2.1719-0.92188 0.85938-2.2031 1.375l-1.3906 0.82812h-5.9219l-0.0156-3.7969h4.1094q0.9375 0 1.5469-0.40625 0.625-0.42188 0.92187-1.1719 0.3125-0.76562 0.3125-1.7812 0-1.0781-0.28125-1.8438-0.26562-0.78125-0.85937-1.1875-0.57813-0.42188-1.5156-0.42188h-2.7188v18.953h-4.5781zm10.328 22.75-4.1719-10.141 4.7969-0.01563 4.2656 9.9375v0.21876z"/><path d="m11.469 26.976q0-0.60938-0.10938-1.1094t-0.46875-0.92188q-0.34375-0.42188-1.0156-0.84375-0.65625-0.42188-1.7188-0.875-1.2656-0.53125-2.4531-1.125-1.1875-0.60938-2.1406-1.4062t-1.5156-1.875q-0.54688-1.0938-0.54688-2.5625 0-1.4375 0.51562-2.6094 0.53125-1.1719 1.5-2 0.96875-0.84375 2.2656-1.2969 1.3125-0.45312 2.9219-0.45312 2.1875 0 3.7812 0.90625 1.6094 0.90625 2.4844 2.4844 0.89062 1.5781 0.89062 3.625h-4.5625q0-0.96875-0.28125-1.7031-0.26562-0.75-0.85938-1.1719t-1.5312-0.42188q-0.875 0-1.4531 0.35938-0.5625 0.34375-0.84375 0.95312-0.26562 0.59375-0.26562 1.3438 0 0.5625 0.26562 1.0156 0.28125 0.4375 0.76562 0.79688 0.48438 0.34375 1.1406 0.67188 0.67188 0.32812 1.4688 0.64062 1.5469 0.60938 2.7344 1.3438 1.1875 0.71875 1.9844 1.625 0.79688 0.89062 1.2031 2.0156t0.40625 2.5625q0 1.4219-0.5 2.5938-0.48438 1.1562-1.4219 2-0.9375 0.82812-2.2656 1.2812-1.3125 0.45312-2.9375 0.45312-1.5781 0-2.9844-0.4375-1.4062-0.45312-2.4844-1.3594-1.0625-0.92188-1.6719-2.3281-0.60938-1.4219-0.60938-3.3594h4.5781q0 1.0312 0.20312 1.7656 0.20312 0.71875 0.625 1.1562 0.42188 0.42188 1.0312 0.64062 0.625 0.20312 1.4219 0.20312 0.90625 0 1.4375-0.34375 0.54688-0.34375 0.78125-0.92188t0.23438-1.3125zm18.484-1.5938h4.5469q-0.09375 2.5625-1.0312 4.3281-0.9375 1.75-2.6719 2.6562-1.7188 0.90625-4.1562 0.90625-1.8906 0-3.3594-0.625-1.4688-0.64062-2.5-1.875t-1.5625-3.0469q-0.51562-1.8281-0.51562-4.2031v-3.8594q0-2.375 0.54688-4.2031 0.5625-1.8281 1.5938-3.0625 1.0469-1.25 2.5156-1.875 1.4844-0.64062 3.3438-0.64062 2.4844 0 4.1562 0.9375 1.6719 0.92188 2.5781 2.7188 0.92188 1.7969 1.1094 4.375h-4.5625q-0.04687-1.625-0.375-2.5469-0.3125-0.9375-1-1.3125-0.6875-0.39062-1.9062-0.39062-0.90625 0-1.5625 0.32812-0.65625 0.3125-1.0781 1.0156t-0.625 1.8438q-0.1875 1.1406-0.1875 2.7812v3.8906q0 1.6094 0.17188 2.75 0.17188 1.125 0.54688 1.8438t1.0156 1.0469q0.65625 0.32812 1.6562 0.32812 1.1562 0 1.8594-0.34375 0.71875-0.34375 1.0625-1.2344t0.39062-2.5312zm12.141-15.172v22.75h-4.5469v-22.75zm16.938 18.969v3.7812h-9.8906v-3.7812zm-8.4688-18.969v22.75h-4.5781v-22.75zm7.1406 9.2188v3.6719h-8.5625v-3.6719zm1.2969-9.2188v3.7969h-9.8594v-3.7969zm18.594 0v22.75h-4.4219l-7.1406-14.234v14.234h-4.3438v-22.75h4.3594l7.2031 14.391v-14.391zm14.531 15.172h4.5469q-0.09375 2.5625-1.0312 4.3281-0.9375 1.75-2.6719 2.6562-1.7188 0.90625-4.1562 0.90625-1.8906 0-3.3594-0.625-1.4688-0.64062-2.5-1.875t-1.5625-3.0469q-0.51562-1.8281-0.51562-4.2031v-3.8594q0-2.375 0.54688-4.2031 0.5625-1.8281 1.5938-3.0625 1.0469-1.25 2.5156-1.875 1.4844-0.64062 3.3438-0.64062 2.4844 0 4.1562 0.9375 1.6719 0.92188 2.5781 2.7188 0.92188 1.7969 1.1094 4.375h-4.5625q-0.04687-1.625-0.375-2.5469-0.3125-0.9375-1-1.3125-0.6875-0.39062-1.9062-0.39062-0.90625 0-1.5625 0.32812-0.65625 0.3125-1.0781 1.0156t-0.625 1.8438q-0.1875 1.1406-0.1875 2.7812v3.8906q0 1.6094 0.17188 2.75 0.17188 1.125 0.54688 1.8438t1.0156 1.0469q0.65625 0.32812 1.6562 0.32812 1.1562 0 1.8594-0.34375 0.71875-0.34375 1.0625-1.2344t0.39062-2.5312zm20.438 3.7969v3.7812h-9.8906v-3.7812zm-8.4688-18.969v22.75h-4.5781v-22.75zm7.1406 9.2188v3.6719h-8.5625v-3.6719zm1.2969-9.2188v3.7969h-9.8594v-3.7969zm18.297 4.0625-4.8906 18.688h-4.8281l7.1094-22.75h3.0156zm3.8594 18.688-4.9219-18.688-0.45312-4.0625h3.0625l7.1719 22.75zm0.17187-8.4844v3.7969h-10.266v-3.7969zm22.75-14.266v22.75h-4.4219l-7.1406-14.234v14.234h-4.3438v-22.75h4.3594l7.2031 14.391v-14.391zm9.625 22.75h-4.0156l0.0312-3.7812h3.9844q1.6562 0 2.5781-0.59375 0.92187-0.59375 1.2969-1.875 0.39068-1.2812 0.39068-3.3594v-3.5469q0-1.5781-0.20313-2.6719-0.20312-1.1094-0.6875-1.7812-0.48437-0.6875-1.2969-1.0156t-2.0156-0.32812h-4.1562v-3.7969h4.1562q1.9688 0 3.5781 0.64062 1.6094 0.64062 2.7656 1.875 1.1562 1.2188 1.7812 3.0156t0.625 4.0938v3.5156q0 2.3125-0.625 4.0938t-1.7812 3.0156q-1.1406 1.2188-2.7656 1.8594t-3.6406 0.64062zm-1.3594-22.75v22.75h-4.5781v-22.75z"/><path d="m14.891 62.139v3.7812h-9.8906v-3.7812zm-8.4688-18.969v22.75h-4.5781v-22.75zm7.1406 9.2188v3.6719h-8.5625v-3.6719zm1.2969-9.2188v3.7969h-9.8594v-3.7969zm18.594 0v22.75h-4.4219l-7.1406-14.234v14.234h-4.3438v-22.75h4.3594l7.2031 14.391v-14.391zm19.141 10.797v9.375q-0.48438 0.51562-1.4219 1.2031-0.92188 0.67188-2.4219 1.1875-1.4844 0.5-3.625 0.5-1.8906 0-3.4375-0.59375-1.5312-0.59375-2.6406-1.7969-1.0938-1.2188-1.6719-3.0312-0.57812-1.8281-0.57812-4.3281v-3.875q0-2.4688 0.54688-4.2969 0.5625-1.8438 1.625-3.0625t2.5312-1.8125q1.4844-0.59375 3.3438-0.59375 2.5625 0 4.2031 0.85938 1.6562 0.85938 2.5 2.5469 0.85938 1.6875 1.0312 4.1406h-4.4219q-0.10938-1.4375-0.48438-2.25-0.35938-0.8125-1.0156-1.1562-0.65625-0.35938-1.7031-0.35938-0.90625 0-1.5781 0.32812-0.67188 0.3125-1.125 1.0312t-0.67188 1.8438-0.21875 2.75v3.9062q0 1.6094 0.25 2.75t0.73438 1.8594q0.5 0.71875 1.25 1.0469 0.76562 0.3125 1.7969 0.3125 0.82812 0 1.3281-0.17188t0.79688-0.35938q0.3125-0.20312 0.51562-0.3125v-4.1875h-3.2656v-3.4531zm8.0312-10.797v22.75h-4.5469v-22.75zm19.797 0v22.75h-4.4219l-7.1406-14.234v14.234h-4.3438v-22.75h4.3594l7.2031 14.391v-14.391zm16.734 18.969v3.7812h-9.8906v-3.7812zm-8.4688-18.969v22.75h-4.5781v-22.75zm7.1406 9.2188v3.6719h-8.5625v-3.6719zm1.2969-9.2188v3.7969h-9.8594v-3.7969zm15.734 18.969v3.7812h-9.8906v-3.7812zm-8.4688-18.969v22.75h-4.5781v-22.75zm7.1406 9.2188v3.6719h-8.5625v-3.6719zm1.2969-9.2188v3.7969h-9.8594v-3.7969zm2.7031 0h7.2969q2.2812 0 3.8906 0.78125t2.4688 2.3125q0.85937 1.5312 0.85937 3.7812 0 1.8438-0.5 3.1562-0.5 1.2969-1.4219 2.1719-0.92187 0.85938-2.2031 1.375l-1.3906 0.82812h-5.9219l-0.0156-3.7969h4.1094q0.9375 0 1.5469-0.40625 0.625-0.42188 0.92188-1.1719 0.3125-0.76562 0.3125-1.7812 0-1.0781-0.28125-1.8438-0.26563-0.78125-0.85938-1.1875-0.57812-0.42188-1.5156-0.42188h-2.7188v18.953h-4.5781zm10.328 22.75-4.1719-10.141 4.7969-0.01563 4.2656 9.9375v0.21875zm12.109-22.75v22.75h-4.5469v-22.75zm19.797 0v22.75h-4.4219l-7.1406-14.234v14.234h-4.3438v-22.75h4.3594l7.2031 14.391v-14.391zm19.141 10.797v9.375q-0.48438 0.51562-1.4219 1.2031-0.92187 0.67188-2.4219 1.1875-1.4844 0.5-3.625 0.5-1.8906 0-3.4375-0.59375-1.5312-0.59375-2.6406-1.7969-1.0938-1.2188-1.6719-3.0312-0.57813-1.8281-0.57813-4.3281v-3.875q0-2.4688 0.54688-4.2969 0.5625-1.8438 1.625-3.0625t2.5312-1.8125q1.4844-0.59375 3.3438-0.59375 2.5625 0 4.2031 0.85938 1.6562 0.85938 2.5 2.5469 0.85938 1.6875 1.0312 4.1406h-4.4219q-0.10938-1.4375-0.48438-2.25-0.35937-0.8125-1.0156-1.1562-0.65625-0.35938-1.7031-0.35938-0.90625 0-1.5781 0.32812-0.67188 0.3125-1.125 1.0312-0.45313 0.71875-0.67188 1.8438t-0.21875 2.75v3.9062q0 1.6094 0.25 2.75t0.73438 1.8594q0.5 0.71875 1.25 1.0469 0.76562 0.3125 1.7969 0.3125 0.82813 0 1.3281-0.17188t0.79687-0.35938q0.3125-0.20312 0.51563-0.3125v-4.1875h-3.2656v-3.4531z"/></g></g></svg>
